<svg xmlns="http://www.w3.org/2000/svg" viewBox="0 0 404.87 592.43">
<defs>
<style>.cls-1{fill:#1d1d1b;stroke:#1d1d1b;stroke-miterlimit:10;stroke-width:2px;}</style>
</defs>
<g id="Calque_2" data-name="Calque 2">
<g id="Calque_5" data-name="Calque 5">
<path class="cls-1" d="M403,15.38l-44-14.18a4,4,0,0,0-3.72.64c-10.2,7.91-63.16,53.54-97.92,171.93-1.18,4-2.81,10.29-4.75,18.22l-68.3-91.26L1.25,346l50.32,67c-8.39,22.65-18.69,52.33-9.1,86.88,3.23,11.62,12.31,44.38,39.13,54,23.75,8.52,49.1-5.31,63.56-16.22L185,590.77,368.62,346.92,265.41,209c4.49-15.59,8.6-28.44,13.41-42,8.87-25,27.4-77.07,57.91-103,27.28-23.22,58-41.48,66.55-46.42A1.18,1.18,0,0,0,403,15.38ZM145.62,521.28q-3.9,3.94-7.46,7c-17,14.8-28.17,16.11-33.86,16.15-20.54.14-33.92-12.52-37.57-18-18.87-28.3-16.07-64.77-3.8-98.36Q65,422.5,67.36,417a228.91,228.91,0,0,1,27-46.3c8.7-11.5,23.27-27.3,43.57-25.05,24.88,2.77,27.85,39.7,27.39,59.48-.78,33.66-33.39,62.56-30.52,65.74,2,2.23,33.39-28.95,39.39-41.74,6.94-14.78,19.64-58.85,12-86.87-2.35-8.61-11.19-30.07-35.74-33.39-41-5.54-80.89,66.54-94.09,93.51L13.74,345.6,190.35,109.11l62.25,83.18C238.89,248,209.26,385,202.12,410.64c-14,50.32-29.4,81.7-53.22,107.22Q147.23,519.65,145.62,521.28ZM368,346.54,191,581.71l-38-50.6a35.36,35.36,0,0,0,3.73-3.86c30.26-39.65,44.09-78.52,44.09-78.52s.16,10.57-.26,33.91c-.23,12.25,1,63.91,6,62.09,2.31-.85,2-30.12,2.08-33.39.53-28.7,1.94-46.14,3.13-68.09.79-14.35,12.27-74.87,28.44-138.52,11.32-44.56,18.62-72.88,25.12-95.44Z"/>
</g></g>
</svg>